<svg width="36" height="36" viewBox="0 0 36 36" fill="none" xmlns="http://www.w3.org/2000/svg">
<path d="M17.9998 3.48027C22.7318 3.48027 23.2873 3.50137 25.1576 3.58574C26.8873 3.66309 27.8225 3.95137 28.4482 4.19746C29.2779 4.5209 29.8686 4.90059 30.4873 5.51934C31.1061 6.13809 31.4928 6.72871 31.8092 7.5584C32.0482 8.18418 32.3436 9.11934 32.4209 10.849C32.5053 12.7193 32.5264 13.2748 32.5264 18.0068C32.5264 22.7389 32.5053 23.2943 32.4209 25.1646C32.3436 26.8943 32.0553 27.8295 31.8092 28.4553C31.4857 29.285 31.1061 29.8756 30.4873 30.4943C29.8686 31.1131 29.2779 31.4998 28.4482 31.8162C27.8225 32.0553 26.8873 32.3506 25.1576 32.4279C23.2873 32.5123 22.7318 32.5334 17.9998 32.5334C13.2678 32.5334 12.7123 32.5123 10.842 32.4279C9.1123 32.3506 8.17715 32.0623 7.55137 31.8162C6.72168 31.4928 6.13105 31.1131 5.5123 30.4943C4.89355 29.8756 4.50684 29.285 4.19043 28.4553C3.95137 27.8295 3.65605 26.8943 3.57871 25.1646C3.49434 23.2943 3.47324 22.7389 3.47324 18.0068C3.47324 13.2748 3.49434 12.7193 3.57871 10.849C3.65605 9.11934 3.94434 8.18418 4.19043 7.5584C4.51387 6.72871 4.89355 6.13809 5.5123 5.51934C6.13105 4.90059 6.72168 4.51387 7.55137 4.19746C8.17715 3.9584 9.1123 3.66309 10.842 3.58574C12.7123 3.49434 13.2678 3.48027 17.9998 3.48027ZM17.9998 0.288086C13.1904 0.288086 12.5857 0.30918 10.6943 0.393555C8.80996 0.47793 7.52324 0.780273 6.39824 1.21621C5.23105 1.66621 4.24668 2.27793 3.2623 3.2623C2.27793 4.24668 1.67324 5.23809 1.21621 6.39824C0.780273 7.52324 0.47793 8.80996 0.393555 10.7014C0.30918 12.5857 0.288086 13.1904 0.288086 17.9998C0.288086 22.8092 0.30918 23.4139 0.393555 25.3053C0.47793 27.1896 0.780273 28.4764 1.21621 29.6084C1.66621 30.7756 2.27793 31.76 3.2623 32.7443C4.24668 33.7287 5.23809 34.3334 6.39824 34.7904C7.52324 35.2264 8.80996 35.5287 10.7014 35.6131C12.5928 35.6975 13.1904 35.7186 18.0068 35.7186C22.8232 35.7186 23.4209 35.6975 25.3123 35.6131C27.1967 35.5287 28.4834 35.2264 29.6154 34.7904C30.7826 34.3404 31.767 33.7287 32.7514 32.7443C33.7357 31.76 34.3404 30.7686 34.7975 29.6084C35.2334 28.4834 35.5357 27.1967 35.6201 25.3053C35.7045 23.4139 35.7256 22.8162 35.7256 17.9998C35.7256 13.1834 35.7045 12.5857 35.6201 10.6943C35.5357 8.80996 35.2334 7.52324 34.7975 6.39121C34.3475 5.22402 33.7357 4.23965 32.7514 3.25527C31.767 2.2709 30.7756 1.66621 29.6154 1.20918C28.4904 0.773242 27.2037 0.470898 25.3123 0.386523C23.4139 0.30918 22.8092 0.288086 17.9998 0.288086Z" fill="#BB7043"/>
<path d="M17.9998 8.90137C12.9795 8.90137 8.90137 12.9725 8.90137 17.9998C8.90137 23.0271 12.9795 27.0982 17.9998 27.0982C23.0201 27.0982 27.0982 23.0201 27.0982 17.9998C27.0982 12.9795 23.0201 8.90137 17.9998 8.90137ZM17.9998 23.9061C14.7373 23.9061 12.0936 21.2623 12.0936 17.9998C12.0936 14.7373 14.7373 12.0936 17.9998 12.0936C21.2623 12.0936 23.9061 14.7373 23.9061 17.9998C23.9061 21.2623 21.2623 23.9061 17.9998 23.9061Z" fill="#BB7043"/>
<path d="M27.4569 10.6658C28.6297 10.6658 29.5804 9.71512 29.5804 8.54238C29.5804 7.36964 28.6297 6.41895 27.4569 6.41895C26.2842 6.41895 25.3335 7.36964 25.3335 8.54238C25.3335 9.71512 26.2842 10.6658 27.4569 10.6658Z" fill="#BB7043"/>
</svg>
